# AST/ASF file generated using VICON BodyLanguage
# -----------------------------------------------
:version 1.10
:name VICON
:units
  mass 1.0
  length 0.45
  angle deg
:documentation
   .ast/.asf automatically generated from VICON data using
   VICON BodyBuilder and BodyLanguage model FoxedUp or BRILLIANT.MOD
:root
   order TX TY TZ RX RY RZ
   axis XYZ
   position 0 0 0  
   orientation 0 0 0 
:bonedata
  begin
     id 1 
     name lhipjoint
     direction 0.661853 -0.702389 0.261917 
     length 2.64193 
     axis 0 0 0  XYZ
  end
  begin
     id 2 
     name lfemur
     direction 0.34202 -0.939693 0  
     length 7.01722  
     axis 0 0 20  XYZ
    dof rx ry rz
    limits (-160.0 20.0)
           (-70.0 70.0)
           (-60.0 70.0)
  end
  begin
     id 3 
     name ltibia
     direction 0.34202 -0.939693 0   
     length 8.25008   
     axis 0 0 20   XYZ
    dof rx
    limits (-10.0 170.0)
  end
  begin
     id 4 
     name lfoot
     direction 0.0709916 -0.195048 0.978221   
     length 2.31941   
     axis -90 7.62852e-016 20   XYZ
    dof rx rz
    limits (-45.0 90.0)
           (-70.0 20.0)
  end
  begin
     id 5 
     name ltoes
     direction 1.53586e-011 -4.22017e-011 1   
     length 1.16486   
     axis -90 7.62852e-016 20   XYZ
    dof rx
    limits (-90.0 20.0)
  end
  begin
     id 6 
     name rhipjoint
     direction -0.638185 -0.721362 0.268992   
     length 2.57244  
     axis 0 0 0  XYZ 
  end
  begin
     id 7 
     name rfemur
     direction -0.34202 -0.939693 0   
     length 7.07017   
     axis 0 0 -20   XYZ
    dof rx ry rz
    limits (-160.0 20.0)
           (-70.0 70.0)
           (-70.0 60.0)
  end
  begin
     id 8 
     name rtibia
     direction -0.34202 -0.939693 0   
     length 8.20386   
     axis 0 0 -20   XYZ
    dof rx
    limits (-10.0 170.0)
 end
 begin
     id 9 
     name rfoot
     direction -0.0822429 -0.225961 0.970658   
     length 2.32215  
     axis -90 -7.62852e-016 -20   XYZ
    dof rx rz
    limits (-45.0 90.0)
           (-20.0 70.0)
  end
  begin
     id 10 
     name rtoes
     direction -1.53597e-011 -4.21689e-011 1   
     length 1.16333   
     axis -90 -7.62852e-016 -20   XYZ
    dof rx
    limits (-90.0 20.0)
  end
  begin
     id 11 
     name lowerback
     direction -0.0131557 0.998589 -0.0514484   
     length 2.14993   
     axis 0 0 0   XYZ
    dof rx ry rz
    limits (-20.0 45.0)
           (-30.0 30.0)
           (-30.0 30.0)
  end
  begin
     id 12 
     name upperback
     direction -0.000776481 0.999993 0.00352685   
     length 2.15301   
     axis 0 0 0   XYZ
    dof rx ry rz
    limits (-20.0 45.0)
           (-30.0 30.0)
           (-30.0 30.0)
  end
  begin
     id 13 
     name thorax
     direction 0.00438186 0.999609 0.0276143   
     length 2.15424   
     axis 0 0 0   XYZ
    dof rx ry rz
    limits (-20.0 45.0)
           (-30.0 30.0)
           (-30.0 30.0)
  end
  begin
     id 14 
     name lowerneck
     direction -0.0488006 0.998094 0.0377807   
     length 1.90481   
     axis 0 0 0   XYZ
    dof rx ry rz
    limits (-20.0 45.0)
           (-30.0 30.0)
           (-30.0 30.0)
  end
  begin
     id 15 
     name upperneck
     direction 0.0443769 0.990702 -0.12861   
     length 1.91305   
     axis 0 0 0   XYZ
    dof rx ry rz
    limits (-20.0 45.0)
           (-30.0 30.0)
           (-30.0 30.0)
  end
  begin
     id 16
     name head
     direction 0.0165599 0.998647 -0.0492982  
     length 1.92369  
     axis 0 0 0   XYZ
    dof rx ry rz
    limits (-20.0 45.0)
           (-30.0 30.0)
           (-30.0 30.0)
  end
  begin
     id 17 
     name lclavicle
     direction 0.911936 0.410197 -0.0105506  
     length 3.52622  
     axis 0 0 0   XYZ
    dof ry rz
    limits (-20.0 10.0)
           (0.0 20.0)
  end
  begin
     id 18 
     name lhumerus
     direction 1 -4.48974e-011 -2.48591e-028   
     length 5.47651   
     axis 180 -30 -90   XYZ
    dof rx ry rz
    limits (-60.0 90.0)
           (-90.0 90.0)
           (-90.0 90.0)
  end
  begin
     id 19
     name lradius
     direction 1 -4.48938e-011 -4.40099e-027   
     length 3.09058   
     axis 180 -30 -90   XYZ
    dof rx
    limits (-10.0 170.0)
  end
  begin
     id 20
     name lwrist
     direction 1 -4.49042e-011 -2.99852e-027   
     length 1.54529   
     axis 1.95339e-015 90 90   XYZ
    dof ry
    limits (-180.0 0.0)
 end
  begin
     id 21 
     name lhand
     direction 1 -4.48815e-011 -5.98193e-027   
     length 0.771611   
     axis 3.82337e-015 90 90   XYZ
    dof rx rz
    limits (-90.0 90.0)
           (-45.0 45.0)
  end
  begin
     id 22 
     name lfingers
     direction 1 -4.49034e-011 -1.1993e-026   
     length 0.622093   
     axis 7.64668e-015 90 90   XYZ
    dof rx
    limits (0.0 90.0)
  end
  begin
     id 23
     name lthumb
     direction 0.707107 -6.34867e-011 0.707107   
     length 0.893204   
     axis -90 45 -1.62303e-014   XYZ
    dof rx rz
    limits (-45.0 45.0)
           (-45.0 45.0)
  end
  begin
     id 24 
     name rclavicle
     direction -0.93442 0.355634 -0.0195692   
     length 3.62463  
     axis 0 0 0   XYZ 
    dof ry rz
    limits (-10.0 20.0)
           (-20.0 0.0)
  end
  begin
     id 25 
     name rhumerus
     direction -1 -4.48957e-011 -1.19147e-027  
     length 5.14182   
     axis 180 30 90   XYZ
    dof rx ry rz
    limits (-90.0 60.0)
           (-90.0 90.0)
           (-90.0 90.0)
  end
  begin
     id 26 
     name rradius
     direction -1 -4.48952e-011 -3.81062e-027   
     length 3.35565   
     axis 180 30 90   XYZ
    dof rx
    limits (-10.0 170.0)
  end
  begin
     id 27 
     name rwrist
     direction -1 -4.48973e-011 -2.99621e-027   
     length 1.67782   
     axis 1.95339e-015 -90 -90   XYZ
    dof ry
    limits (-180.0 0.0)
  end
  begin
     id 28
     name rhand
     direction -1 -4.48895e-011 -5.98727e-027   
     length 0.801042   
     axis 3.82337e-015 -90 -90   XYZ
    dof rx rz
    limits (-90.0 90.0)
           (-45.0 45.0)
  end
  begin
     id 29
     name rfingers
     direction -1 -4.49065e-011 -1.19972e-026   
     length 0.645821   
     axis 7.64668e-015 -90 -90   XYZ
    dof rx
    limits (0.0 90.0)
  end
  begin
     id 30
     name rthumb
     direction -0.707107 -6.34957e-011 0.707107   
     length 0.927273   
     axis -90 -45 1.62303e-014   XYZ
    dof rx rz
    limits (-45.0 45.0)
           (-45.0 45.0)
  end
:hierarchy
  begin
    root lhipjoint rhipjoint lowerback
    lhipjoint lfemur
    lfemur ltibia
    ltibia lfoot
    lfoot ltoes
    rhipjoint rfemur
    rfemur rtibia
    rtibia rfoot
    rfoot rtoes
    lowerback upperback
    upperback thorax
    thorax lowerneck lclavicle rclavicle
    lowerneck upperneck
    upperneck head
    lclavicle lhumerus
    lhumerus lradius
    lradius lwrist
    lwrist lhand lthumb
    lhand lfingers
    rclavicle rhumerus
    rhumerus rradius
    rradius rwrist
    rwrist rhand rthumb
    rhand rfingers
  end

#!OML:ASF E:\Style4\Style4.ASF
:FULLY-SPECIFIED
:DEGREES
112
root -1.433 17.9918 -1.37061 1.69742 1.05043 -0.769751
lowerback 9.86987 2.5641 -1.2608
upperback 9.72785 3.42445 -3.07511
thorax 4.78921 1.76295 -2.69337
lowerneck 6.45039 -3.12711 -5.48003
upperneck -7.37326 -3.47252 15.9164
head -2.8441 -2.2596 5.92549
rclavicle -2.38542e-014 2.8625e-014
rhumerus 47.2904 22.1786 19.6903
rradius 100.606
rwrist -93.9155
rhand -21.8331 10.5068
rfingers 7.12502
rthumb 4.56991 -19.4239
lclavicle -2.38542e-014 2.8625e-014
lhumerus 22.5128 -42.6093 79.8511
lradius 101.897
lwrist 73.7358
lhand -35.7173 39.5817
lfingers 7.12502
lthumb -8.837 69.3767
rfemur -12.6426 -1.85303 25.3327
rtibia 24.1507
rfoot -13.3057 -17.7658
rtoes -4.07951
lfemur -13.3047 -5.04549 -11.7546
ltibia 24.5026
lfoot -12.2349 14.8804
ltoes -21.8737
113
root -1.4281 17.9913 -1.37092 1.74578 1.35625 -0.790768
lowerback 9.76883 2.66183 -1.28731
upperback 9.83371 3.55667 -2.8958
thorax 4.94991 1.82184 -2.49065
lowerneck 6.58731 -3.24983 -5.53453
upperneck -7.54631 -3.63201 15.8578
head -2.90004 -2.34563 5.92852
rclavicle -3.18055e-015 5.56597e-015
rhumerus 47.5998 22.0839 19.7436
rradius 100.726
rwrist -94.3
rhand -22.0064 10.1593
rfingers 7.12502
rthumb 4.40262 -19.7749
lclavicle -3.18055e-015 5.56597e-015
lhumerus 22.5764 -42.5149 79.5608
lradius 101.911
lwrist 73.3953
lhand -35.5377 39.5361
lfingers 7.12502
lthumb -8.66369 69.3383
rfemur -12.7131 -1.9309 25.3432
rtibia 24.1869
rfoot -13.2214 -17.9987
rtoes -4.33839
lfemur -13.464 -5.19467 -11.7387
ltibia 24.5307
lfoot -12.1722 14.7438
ltoes -21.7162
114
root -1.42128 17.9929 -1.3688 1.78268 1.69466 -0.797318
lowerback 9.69109 2.76692 -1.22454
upperback 9.93567 3.70379 -2.74993
thorax 5.10176 1.89503 -2.3741
lowerneck 6.72947 -3.41935 -5.51068
upperneck -7.78958 -3.84345 15.7547
head -2.97448 -2.46008 5.90784
rclavicle -5.68524e-014 1.03368e-014
rhumerus 47.7757 22.1261 19.6636
rradius 100.819
rwrist -94.5595
rhand -22.1397 9.93999
rfingers 7.12502
rthumb 4.2739 -19.9969
lclavicle -5.68524e-014 1.03368e-014
lhumerus 22.7538 -42.4917 79.2235
lradius 101.798
lwrist 73.0064
lhand -35.2031 39.4543
lfingers 7.12502
lthumb -8.34077 69.2696
rfemur -12.7503 -2.0893 25.3227
rtibia 24.2187
rfoot -13.2612 -18.1666
rtoes -4.37442
lfemur -13.618 -5.37883 -11.7514
ltibia 24.5751
lfoot -12.1597 14.6118
ltoes -21.4198
115
root -1.41246 17.9929 -1.36745 1.76658 2.07574 -0.829951
lowerback 9.72506 2.8346 -1.06601
upperback 10.0109 3.80253 -2.6322
thorax 5.16962 1.95125 -2.34389
lowerneck 6.87984 -3.58239 -5.44954
upperneck -8.00726 -4.04596 15.6454
head -3.0453 -2.57011 5.87867
rclavicle -2.38542e-014 2.14687e-014
rhumerus 47.9627 22.2888 19.4164
rradius 100.858
rwrist -94.7587
rhand -22.1212 9.92388
rfingers 7.12502
rthumb 4.29175 -20.0126
lclavicle -2.38542e-014 2.14687e-014
lhumerus 22.9125 -42.4041 78.8112
lradius 101.775
lwrist 72.9495
lhand -35.1339 39.4894
lfingers 7.12502
lthumb -8.27402 69.3074
rfemur -12.7366 -2.30475 25.3238
rtibia 24.2734
rfoot -13.283 -18.3276
rtoes -4.51788
lfemur -13.723 -5.5783 -11.7544
ltibia 24.6072
lfoot -12.1208 14.5143
ltoes -21.4172
116
root -1.40469 17.9921 -1.37033 1.77618 2.42907 -0.825759
lowerback 9.78873 2.93537 -0.95871
upperback 10.0558 3.94026 -2.5209
thorax 5.18701 2.02395 -2.29607
lowerneck 7.019 -3.75807 -5.37551
upperneck -8.15342 -4.27303 15.5255
head -3.09151 -2.68918 5.84279
rclavicle 4.49253e-014 -2.54444e-014
rhumerus 48.1439 22.4075 19.172
rradius 100.91
rwrist -94.9942
rhand -22.285 9.83878
rfingers 7.12502
rthumb 4.1336 -20.1009
lclavicle 4.49253e-014 -2.54444e-014
lhumerus 23.0411 -42.4023 78.3766
lradius 101.797
lwrist 72.8231
lhand -35.3536 39.654
lfingers 7.12502
lthumb -8.48598 69.4635
rfemur -12.7804 -2.37586 25.2911
rtibia 24.3457
rfoot -13.3476 -18.5669
rtoes -4.44589
lfemur -13.8464 -5.70841 -11.7885
ltibia 24.6086
lfoot -12.0363 14.3467
ltoes -21.3876
117
root -1.39748 17.9927 -1.37198 1.83784 2.73865 -0.771813
lowerback 9.81972 3.06826 -0.867564
upperback 10.1363 4.12296 -2.44319
thorax 5.2649 2.11978 -2.27385
lowerneck 6.9654 -3.95862 -5.28704
upperneck -8.31247 -4.52648 15.4294
head -3.10588 -2.81609 5.80738
rclavicle 1.59028e-015 2.46493e-014
rhumerus 48.1724 22.3116 18.9828
rradius 101.048
rwrist -95.3908
rhand -22.462 9.70231
rfingers 7.12502
rthumb 3.96261 -20.2406
lclavicle 1.59028e-015 2.46493e-014
lhumerus 23.3143 -42.5037 77.7839
lradius 101.844
lwrist 72.8513
lhand -35.966 39.5698
lfingers 7.12502
lthumb -9.07696 69.3544
rfemur -12.8863 -2.45722 25.2042
rtibia 24.4421
rfoot -13.4877 -18.7526
rtoes -4.14659
lfemur -13.993 -5.81522 -11.8689
ltibia 24.5751
lfoot -11.8928 14.2316
ltoes -21.6087
118
root -1.38845 17.9946 -1.36992 1.84289 3.06743 -0.671356
lowerback 9.93945 3.20605 -0.70031
upperback 10.3169 4.32025 -2.44107
thorax 5.41689 2.23238 -2.37584
lowerneck 6.47004 -4.24827 -5.07408
upperneck -8.33706 -4.89983 15.3092
head -2.99705 -2.98497 5.72821
rclavicle -1.39149e-014 3.4191e-014
rhumerus 48.0359 22.0502 18.7006
rradius 101.171
rwrist -95.8423
rhand -22.6653 9.54462
rfingers 7.12502
rthumb 3.76629 -20.4018
lclavicle -1.39149e-014 3.4191e-014
lhumerus 23.8595 -42.5811 76.9145
lradius 101.919
lwrist 73.1728
lhand -36.4291 39.5773
lfingers 7.12502
lthumb -9.52386 69.342
rfemur -12.9228 -2.62926 25.0518
rtibia 24.5681
rfoot -13.6888 -18.8345
rtoes -3.90116
lfemur -14.0334 -5.94435 -12.0193
ltibia 24.4984
lfoot -11.7802 14.1235
ltoes -21.7912
119
root -1.3766 17.9956 -1.36648 1.81607 3.42791 -0.483193
lowerback 10.1138 3.37053 -0.537284
upperback 10.5483 4.55527 -2.48195
thorax 5.60214 2.36701 -2.52401
lowerneck 5.7441 -4.58976 -4.8165
upperneck -8.2326 -5.35025 15.2241
head -2.80478 -3.18276 5.64132
rclavicle -5.24792e-014 5.28767e-014
rhumerus 47.8577 21.9106 18.213
rradius 101.074
rwrist -96.1543
rhand -22.9587 9.50646
rfingers 7.12502
rthumb 3.48295 -20.4448
lclavicle -5.24792e-014 5.28767e-014
lhumerus 24.5376 -42.6982 75.965
lradius 101.962
lwrist 73.3594
lhand -35.8558 40.0629
lfingers 7.12502
lthumb -8.97067 69.8522
rfemur -12.9115 -2.83638 24.791
rtibia 24.6925
rfoot -13.8337 -18.957
rtoes -3.86117
lfemur -14.0212 -6.12508 -12.2823
ltibia 24.4195
lfoot -11.6683 14.0216
ltoes -22.0166
120
root -1.36522 17.9955 -1.36551 1.82336 3.80653 -0.316992
lowerback 10.0763 3.33783 -0.785818
upperback 10.3676 4.48745 -2.29293
thorax 5.38391 2.30722 -2.18839
lowerneck 6.89279 -4.52058 -5.04786
upperneck -8.50788 -5.27454 15.0661
head -3.08719 -3.1807 5.6761
rclavicle 3.99557e-014 -4.29375e-014
rhumerus 48.8063 22.3955 18.102
rradius 101.047
rwrist -96.3282
rhand -23.1525 9.35962
rfingers 7.12502
rthumb 3.29582 -20.5947
lclavicle 3.99557e-014 -4.29375e-014
lhumerus 23.5008 -42.277 76.2555
lradius 102.101
lwrist 73.3404
lhand -34.9319 40.7565
lfingers 7.12502
lthumb -8.07907 70.5821
rfemur -12.9364 -2.89627 24.5559
rtibia 24.8006
rfoot -13.9443 -19.2509
rtoes -3.52862
lfemur -14.0651 -6.32484 -12.5129
ltibia 24.3517
lfoot -11.5682 13.8964
ltoes -22.1831
121
root -1.35592 17.9941 -1.36656 1.87055 4.18411 -0.320593
lowerback 10.0688 3.36903 -0.706984
upperback 10.3 4.52857 -2.1506
thorax 5.30856 2.32731 -2.08692
lowerneck 7.38093 -4.60667 -5.08761
upperneck -8.62921 -5.39869 14.9548
head -3.19512 -3.25635 5.67185
rclavicle 2.04748e-014 -8.34896e-015
rhumerus 49.261 22.6428 17.7868
rradius 101.026
rwrist -96.525
rhand -23.2862 9.22915
rfingers 7.12502
rthumb 3.16676 -20.7271
lclavicle 2.04748e-014 -8.34896e-015
lhumerus 23.0596 -42.0764 76.1355
lradius 102.165
lwrist 73.3943
lhand -34.3514 40.9685
lfingers 7.12502
lthumb -7.5188 70.8149
rfemur -13.0144 -2.91892 24.5312
rtibia 24.8968
rfoot -13.9664 -19.6276
rtoes -3.64165
lfemur -14.2103 -6.4336 -12.5421
ltibia 24.3288
lfoot -11.5166 13.7072
ltoes -22.1209
122
root -1.34411 17.994 -1.3675 1.87943 4.52785 -0.291984
lowerback 10.0938 3.48235 -0.62643
upperback 10.3598 4.68092 -1.97501
thorax 5.35569 2.40302 -1.9553
lowerneck 7.51896 -4.81878 -5.06925
upperneck -8.76842 -5.68885 14.7735
head -3.23522 -3.40077 5.62917
rclavicle 7.15625e-015 -9.14409e-015
rhumerus 49.428 22.7183 17.5319
rradius 101.001
rwrist -96.7775
rhand -23.5524 9.1086
rfingers 7.12502
rthumb 2.90967 -20.8513
lclavicle 7.15625e-015 -9.14409e-015
lhumerus 23.0502 -41.9902 75.8559
lradius 102.191
lwrist 73.5203
lhand -34.1893 40.793
lfingers 7.12502
lthumb -7.36226 70.6449
rfemur -13.0542 -3.14266 24.4576
rtibia 24.976
rfoot -13.9697 -19.7389
rtoes -4.12485
lfemur -14.3321 -6.50247 -12.6199
ltibia 24.3601
lfoot -11.4629 13.4485
ltoes -21.6714
